<svg id="visual" viewBox="0 0 900 600" width="900" height="600" xmlns="http://www.w3.org/2000/svg" xmlns:xlink="http://www.w3.org/1999/xlink" version="1.1"><path d="M0 91L82 91L82 109L164 109L164 103L245 103L245 205L327 205L327 205L409 205L409 157L491 157L491 121L573 121L573 133L655 133L655 127L736 127L736 199L818 199L818 151L900 151L900 247L900 0L900 0L818 0L818 0L736 0L736 0L655 0L655 0L573 0L573 0L491 0L491 0L409 0L409 0L327 0L327 0L245 0L245 0L164 0L164 0L82 0L82 0L0 0Z" fill="#fa7268"></path><path d="M0 235L82 235L82 199L164 199L164 205L245 205L245 313L327 313L327 319L409 319L409 229L491 229L491 247L573 247L573 283L655 283L655 199L736 199L736 343L818 343L818 241L900 241L900 373L900 245L900 149L818 149L818 197L736 197L736 125L655 125L655 131L573 131L573 119L491 119L491 155L409 155L409 203L327 203L327 203L245 203L245 101L164 101L164 107L82 107L82 89L0 89Z" fill="#ea5e66"></path><path d="M0 439L82 439L82 391L164 391L164 421L245 421L245 517L327 517L327 457L409 457L409 499L491 499L491 409L573 409L573 433L655 433L655 415L736 415L736 439L818 439L818 427L900 427L900 475L900 371L900 239L818 239L818 341L736 341L736 197L655 197L655 281L573 281L573 245L491 245L491 227L409 227L409 317L327 317L327 311L245 311L245 203L164 203L164 197L82 197L82 233L0 233Z" fill="#d84a64"></path><path d="M0 565L82 565L82 505L164 505L164 535L245 535L245 559L327 559L327 541L409 541L409 559L491 559L491 511L573 511L573 499L655 499L655 523L736 523L736 511L818 511L818 517L900 517L900 565L900 473L900 425L818 425L818 437L736 437L736 413L655 413L655 431L573 431L573 407L491 407L491 497L409 497L409 455L327 455L327 515L245 515L245 419L164 419L164 389L82 389L82 437L0 437Z" fill="#c53762"></path><path d="M0 601L82 601L82 601L164 601L164 601L245 601L245 601L327 601L327 601L409 601L409 601L491 601L491 601L573 601L573 601L655 601L655 601L736 601L736 601L818 601L818 601L900 601L900 601L900 563L900 515L818 515L818 509L736 509L736 521L655 521L655 497L573 497L573 509L491 509L491 557L409 557L409 539L327 539L327 557L245 557L245 533L164 533L164 503L82 503L82 563L0 563Z" fill="#b0235f"></path></svg>